<?xml version="1.0" standalone="no"?>
<!DOCTYPE svg PUBLIC "-//W3C//DTD SVG 20010904//EN"
 "http://www.w3.org/TR/2001/REC-SVG-20010904/DTD/svg10.dtd">
<svg version="1.0" xmlns="http://www.w3.org/2000/svg"
 width="512.000000pt" height="512.000000pt" viewBox="0 0 512.000000 512.000000"
 preserveAspectRatio="xMidYMid meet">

<g transform="translate(0.000000,512.000000) scale(0.100000,-0.100000)"
fill="#9FA2B4" stroke="none">
<path d="M560 4345 l-135 -135 293 -293 293 -293 -68 -54 c-249 -203 -485
-504 -643 -823 -44 -88 -80 -172 -80 -186 0 -40 147 -330 230 -456 258 -389
593 -684 1005 -886 364 -178 683 -251 1095 -253 314 -1 520 31 800 124 l145
48 358 -356 357 -357 135 135 135 135 -1893 1893 -1892 1892 -135 -135z m1216
-1486 l161 -161 -8 -41 c-23 -120 0 -261 63 -387 121 -242 411 -390 665 -341
l41 8 161 -161 c89 -89 161 -164 161 -168 0 -3 -33 -20 -72 -36 -208 -87 -435
-101 -663 -42 -102 26 -281 114 -365 178 -384 292 -528 805 -348 1240 16 39
33 72 36 72 4 0 79 -72 168 -161z"/>
<path d="M2375 4154 c-123 -13 -222 -27 -315 -45 -107 -21 -329 -85 -342 -97
-4 -4 95 -110 220 -235 l228 -227 58 20 c264 90 545 71 801 -54 129 -64 214
-125 310 -227 163 -173 259 -384 286 -632 16 -141 -11 -337 -65 -477 -4 -10
92 -113 303 -324 l310 -309 33 25 c58 44 237 230 313 323 40 50 108 142 150
205 98 148 230 411 229 460 0 22 -22 81 -60 160 -372 770 -1081 1291 -1929
1416 -97 14 -450 26 -530 18z"/>
<path d="M2860 2866 l335 -336 3 47 c2 25 -4 80 -13 120 -41 185 -170 350
-335 430 -96 46 -146 60 -251 69 l-74 6 335 -336z"/>
</g>
</svg>
