<?xml version="1.0" standalone="no"?>
<!DOCTYPE svg PUBLIC "-//W3C//DTD SVG 20010904//EN"
 "http://www.w3.org/TR/2001/REC-SVG-20010904/DTD/svg10.dtd">
<svg version="1.0" xmlns="http://www.w3.org/2000/svg"
 width="512.000000pt" height="512.000000pt" viewBox="0 0 512.000000 512.000000"
 preserveAspectRatio="xMidYMid meet">

<g transform="translate(0.000000,512.000000) scale(0.100000,-0.100000)"
fill="#9FA2B4" stroke="none">
<path d="M2390 4154 c-419 -49 -737 -158 -1108 -378 -386 -229 -790 -604 -996
-924 -132 -204 -150 -296 -84 -435 80 -166 202 -330 398 -531 431 -442 966
-756 1482 -870 199 -44 265 -50 483 -50 236 0 364 17 590 79 437 120 905 396
1278 755 229 220 397 434 484 615 53 112 53 178 0 290 -85 177 -253 392 -473
605 -451 435 -995 726 -1535 820 -119 20 -428 35 -519 24z m345 -489 c467 -75
826 -424 927 -900 16 -77 16 -333 0 -410 -98 -461 -436 -799 -897 -897 -77
-16 -333 -16 -410 0 -348 74 -626 281 -783 580 -173 331 -175 697 -7 1032 214
427 696 672 1170 595z"/>
<path d="M2425 3349 c-221 -43 -405 -163 -525 -340 -97 -141 -134 -268 -134
-449 -1 -225 75 -410 229 -565 154 -154 340 -230 565 -230 225 0 411 76 565
230 154 154 230 340 230 565 0 174 -36 297 -125 433 -112 173 -271 287 -480
344 -68 18 -258 25 -325 12z"/>
</g>
</svg>
